<svg width="38" height="34" viewBox="0 0 38 34" fill="none" xmlns="http://www.w3.org/2000/svg">
<path fill-rule="evenodd" clip-rule="evenodd" d="M18.3082 0.697651C18.0876 0.476505 17.8256 0.301049 17.5371 0.181335C17.2486 0.0616201 16.9393 0 16.6269 0C16.3146 0 16.0053 0.0616201 15.7168 0.181335C15.4283 0.301049 15.1662 0.476505 14.9457 0.697651L0.697559 14.9457C0.476413 15.1663 0.30096 15.4284 0.181245 15.7169C0.0615305 16.0054 -9.18498e-05 16.3147 -9.18498e-05 16.627C-9.18498e-05 16.9394 0.0615305 17.2487 0.181245 17.5372C0.30096 17.8257 0.476413 18.0877 0.697559 18.3083L14.9457 32.5564C15.3916 33.0023 15.9963 33.2528 16.6269 33.2528C17.2575 33.2528 17.8623 33.0023 18.3082 32.5564C18.7541 32.1105 19.0046 31.5057 19.0046 30.8751C19.0046 30.2445 18.7541 29.6398 18.3082 29.1938L5.73664 16.627L18.3082 4.0602C18.5294 3.83962 18.7048 3.57757 18.8245 3.28907C18.9442 3.00056 19.0059 2.69128 19.0059 2.37893C19.0059 2.06657 18.9442 1.75729 18.8245 1.46879C18.7048 1.18029 18.5294 0.918239 18.3082 0.697651Z" fill="#212121"/>
<path fill-rule="evenodd" clip-rule="evenodd" d="M38 16.6275C38 15.9977 37.7498 15.3937 37.3045 14.9483C36.8591 14.503 36.2551 14.2528 35.6253 14.2528H4.75443C4.12463 14.2528 3.52062 14.503 3.07528 14.9483C2.62994 15.3937 2.37975 15.9977 2.37975 16.6275C2.37975 17.2573 2.62994 17.8613 3.07528 18.3066C3.52062 18.752 4.12463 19.0022 4.75443 19.0022H35.6253C36.2551 19.0022 36.8591 18.752 37.3045 18.3066C37.7498 17.8613 38 17.2573 38 16.6275Z" fill="#212121"/>
</svg>
